<svg width="20" height="15" viewBox="0 0 20 15" fill="none" xmlns="http://www.w3.org/2000/svg">
<path d="M0.484375 15.0052V10.9483C0.484375 9.78167 0.703125 8.5686 1.14063 7.30913C1.59138 6.0364 2.20123 4.83659 2.97017 3.7097C3.75237 2.56955 4.62737 1.60837 5.59517 0.826172L8.93608 2.99379C8.15388 4.17371 7.49763 5.40667 6.96733 6.69265C6.45028 7.96538 6.19839 9.37068 6.21165 10.9086V15.0052H0.484375ZM10.5668 15.0052V10.9483C10.5668 9.78167 10.7855 8.5686 11.223 7.30913C11.6738 6.0364 12.2836 4.83659 13.0526 3.7097C13.8348 2.56955 14.7098 1.60837 15.6776 0.826172L19.0185 2.99379C18.2363 4.17371 17.58 5.40667 17.0497 6.69265C16.5327 7.96538 16.2808 9.37068 16.294 10.9086V15.0052H10.5668Z" fill="#FFA600"/>
</svg>
