<svg width="677" height="679" viewBox="0 0 677 679" fill="none" xmlns="http://www.w3.org/2000/svg">
<path d="M115.073 1018.53C131.783 1016.79 146.747 1028.94 148.49 1045.67L153.88 1097.6C156.616 1099.35 159.092 1101.49 161.219 1103.96L161.217 1103.96C257.035 1214.86 387.546 1290.11 531.513 1317.49L531.511 1317.49C534.72 1318.1 537.808 1319.18 540.69 1320.67L588.342 1299.31L589.248 1298.92C598.354 1295.18 608.715 1296.09 617.044 1301.35L617.869 1301.89L617.869 1301.89L618.515 1302.34C631.683 1311.78 635.157 1329.9 626.418 1343.53L625.985 1344.18C616.681 1357.88 598.193 1361.61 584.344 1352.73L583.689 1352.3L542.83 1324.6L542.159 1324.16C538.782 1322 535.029 1320.49 531.085 1319.75L531.083 1319.75C386.607 1292.27 255.637 1216.76 159.481 1105.46L159.478 1105.46C156.862 1102.42 153.679 1099.92 150.116 1098.08L149.398 1097.73L104.952 1076.23L104.95 1076.23C95.4759 1071.62 89.0318 1062.45 87.9336 1051.95L87.9336 1051.95C86.1916 1035.24 98.3658 1020.28 115.073 1018.53ZM1175.58 1020.51C1190.57 1013.7 1208.33 1020.06 1215.55 1034.96L1215.54 1034.96C1222.78 1049.85 1216.76 1067.73 1202.14 1075.28L1201.44 1075.63L1157.02 1097.17C1153.4 1098.94 1150.15 1101.37 1147.46 1104.33L1146.93 1104.93C1050.87 1216.32 919.991 1291.97 775.539 1319.61L775.541 1319.61C771.326 1320.43 767.337 1322.07 763.794 1324.48L763.792 1324.48L722.955 1352.23C714.513 1357.97 703.766 1359.06 694.338 1355.22L693.429 1354.83C678.055 1347.98 671.206 1329.98 678.055 1314.61C684.907 1299.24 702.93 1292.39 718.276 1299.24L765.925 1320.54C768.809 1319.04 771.897 1317.98 775.102 1317.35L775.106 1317.35L778.477 1316.7C921.086 1288.63 1050.22 1213.56 1145.19 1103.43L1145.76 1102.79C1147.77 1100.58 1150.05 1098.66 1152.56 1097.05L1157.88 1045.15L1157.99 1044.17C1159.36 1034.08 1165.67 1025.31 1174.87 1020.85L1175.58 1020.51ZM616.579 1303.79C608.502 1298.31 598.175 1297.41 589.284 1301.4L589.281 1301.4L543.159 1322.08C543.238 1322.13 543.317 1322.18 543.395 1322.22L544.115 1322.7L544.115 1322.7L584.977 1350.4L585.585 1350.8C598.389 1359.01 615.481 1355.56 624.085 1342.89L624.484 1342.29C632.694 1329.48 629.245 1312.39 616.579 1303.79L616.579 1303.79ZM717.338 1301.34C703.146 1295 686.485 1301.34 680.152 1315.55C673.817 1329.76 680.153 1346.4 694.362 1352.73L695.203 1353.09C703.924 1356.65 713.861 1355.63 721.663 1350.33L762.5 1322.58L763.22 1322.11C763.3 1322.06 763.38 1322.01 763.46 1321.96L717.338 1301.34ZM256.034 936.817C272.669 934.406 288.136 945.934 290.548 962.572L298.066 1014.34C300.451 1015.79 302.654 1017.54 304.612 1019.54L307.555 1022.52C369.592 1084.91 447.397 1129.35 532.707 1151.07L532.705 1151.07C535.431 1151.76 538.048 1152.8 540.504 1154.14L589.075 1134.72L589.997 1134.37C599.555 1130.9 610.272 1132.43 618.482 1138.51L618.484 1138.51C631.993 1148.51 634.858 1167.59 624.856 1181.1C614.856 1194.61 595.783 1197.47 582.272 1187.47L582.272 1187.47L543.067 1158.49L542.446 1158.04C539.32 1155.85 535.835 1154.23 532.142 1153.3L532.142 1153.3C446.429 1131.47 368.256 1086.83 305.926 1024.14L302.97 1021.14C300.312 1018.42 297.166 1016.21 293.715 1014.61L293.019 1014.3L248.277 994.89C238.609 990.688 231.806 981.761 230.279 971.333L230.279 971.331C227.868 954.695 239.396 939.228 256.034 936.817ZM1034.49 938.317C1049.75 932.138 1067.24 939.222 1073.84 954.4C1080.45 969.579 1073.7 987.209 1058.78 994.154L1058.07 994.475L1013.35 1013.93C1009.63 1015.55 1006.23 1017.89 1003.4 1020.8L1003.4 1020.8C940.638 1085.13 861.391 1130.94 774.341 1153.21L774.339 1153.21C770.644 1154.14 767.141 1155.76 764.034 1157.94L763.417 1158.39L724.231 1187.42C716.023 1193.5 705.328 1195.06 695.749 1191.59L694.824 1191.24C679.192 1185.01 671.576 1167.3 677.806 1151.69L678.107 1150.96C684.589 1135.82 701.991 1128.54 717.358 1134.67L765.959 1154.05C768.18 1152.83 770.539 1151.87 772.984 1151.19L773.776 1150.98C860.416 1128.82 939.289 1083.22 1001.75 1019.2L1002.33 1018.62C1004.15 1016.85 1006.16 1015.28 1008.32 1013.96L1015.79 962.181L1015.95 961.208C1017.73 951.197 1024.4 942.693 1033.77 938.622L1034.49 938.317ZM617.116 1140.36C609.527 1134.74 599.617 1133.32 590.78 1136.53L589.927 1136.85L542.976 1155.62C543.24 1155.8 543.505 1155.97 543.765 1156.16L544.429 1156.63L544.431 1156.64L583.638 1185.62L583.64 1185.62L584.228 1186.05C596.677 1194.78 613.907 1192.03 623.01 1179.73C632.112 1167.44 629.688 1150.16 617.694 1140.8L617.116 1140.36ZM716.508 1136.8C702.302 1131.14 686.211 1137.87 680.218 1151.87L679.939 1152.54C674.181 1166.97 681.22 1183.35 695.675 1189.11L695.677 1189.11L696.529 1189.43C705.385 1192.64 715.275 1191.2 722.865 1185.58L762.049 1156.54C762.52 1156.19 763.001 1155.86 763.489 1155.53L716.508 1136.8ZM146.206 1045.91C144.595 1030.44 130.756 1019.21 115.31 1020.82C99.8617 1022.43 88.6068 1036.27 90.2171 1051.71L90.327 1052.62C91.6073 1061.95 97.4635 1070.03 105.95 1074.16L105.952 1074.16L150.399 1095.66L150.396 1095.66C150.742 1095.82 151.085 1096 151.424 1096.18L146.206 1045.91ZM1213.48 1035.96C1206.81 1022.18 1190.39 1016.3 1176.53 1022.61L1175.87 1022.91L1175.87 1022.91C1167.36 1027.04 1161.53 1035.14 1160.27 1044.47L1160.16 1045.38L1155.01 1095.62C1155.34 1095.44 1155.67 1095.27 1156.01 1095.11L1156.01 1095.11L1200.44 1073.56L1201.09 1073.24C1214.61 1066.26 1220.17 1049.73 1213.48 1035.96L1213.48 1035.96ZM368.898 871.277C385.343 867.768 401.527 878.245 405.036 894.692L416.038 946.258L415.794 946.309C417.213 947.201 418.567 948.2 419.842 949.302L419.845 949.302C453.936 978.699 493.272 1001.39 535.811 1016.18L535.809 1016.18C537.403 1016.73 538.949 1017.4 540.436 1018.18L540.36 1017.94L590.502 1001.63L590.504 1001.63L591.448 1001.34C601.234 998.525 611.804 1000.75 619.599 1007.36L620.191 1007.88C632.486 1018.82 633.846 1037.64 623.156 1050.28C612.464 1062.92 593.677 1064.64 580.845 1054.34L580.24 1053.84L545.05 1024.05L545.048 1024.04C542.103 1021.54 538.714 1019.61 535.058 1018.35L535.055 1018.35C493.58 1003.93 455.132 982.049 421.576 953.797L418.344 951.042C415.421 948.518 412.054 946.566 408.416 945.257L408.416 945.255L365.006 929.731C355.078 926.175 347.679 917.727 345.483 907.415L345.328 906.643C342.302 890.466 352.708 874.731 368.898 871.277ZM921.437 871.842C937.062 866.676 954.036 874.9 959.627 890.477C965.219 906.056 957.325 923.184 941.983 929.134L941.248 929.408L897.835 944.979L897.838 944.981C894.205 946.289 890.833 948.258 887.908 950.784L887.91 950.787C853.624 980.418 814.059 1003.3 771.27 1018.21L771.273 1018.21C768.089 1019.33 765.094 1020.95 762.422 1023.02L761.295 1023.93L726.131 1053.76C718.338 1060.38 707.745 1062.62 697.976 1059.8L697.034 1059.52C681.04 1054.34 672.281 1037.15 677.461 1021.16C682.641 1005.17 699.828 996.406 715.82 1001.59L765.983 1017.85L765.916 1018.05C767.394 1017.27 768.929 1016.6 770.505 1016.04L770.51 1016.04L774.487 1014.63C815.478 999.8 853.403 977.574 886.407 949.05L886.407 949.048L887.001 948.548C888.1 947.643 889.253 946.808 890.454 946.049L890.238 946.004L901.193 894.439L901.415 893.476C903.853 883.582 911.075 875.544 920.695 872.098L921.437 871.842ZM618.114 1009.11C610.679 1002.8 600.505 1000.81 591.21 1003.81L591.213 1003.82L542.816 1019.55C544.114 1020.38 545.357 1021.29 546.533 1022.29L581.722 1052.08L582.283 1052.54C594.15 1062.08 611.519 1060.48 621.402 1048.8C631.445 1036.92 629.985 1019.16 618.114 1009.12L618.114 1009.11ZM715.111 1003.77C700.324 998.981 684.434 1007.08 679.646 1021.87C674.857 1036.65 682.958 1052.54 697.743 1057.33L698.613 1057.6C707.645 1060.2 717.439 1058.13 724.644 1052.01L759.808 1022.18L760.407 1021.68C761.395 1020.88 762.428 1020.14 763.496 1019.46L715.111 1003.77ZM288.275 962.901C286.046 947.521 271.746 936.86 256.363 939.089C240.983 941.318 230.322 955.619 232.551 971.001L232.699 971.9C234.361 981.158 240.535 989.021 249.192 992.783L249.19 992.783L293.935 1012.19L294.679 1012.53C294.969 1012.66 295.257 1012.8 295.543 1012.94L288.275 962.901ZM1071.74 955.315C1065.63 941.283 1049.46 934.733 1035.36 940.446L1034.68 940.729C1026.03 944.491 1019.85 952.354 1018.21 961.609L1018.07 962.509L1010.84 1012.57C1011.36 1012.3 1011.9 1012.06 1012.43 1011.82L1057.15 992.369L1057.81 992.07C1071.61 985.649 1077.84 969.349 1071.74 955.315ZM48.1373 375.642C61.6939 366.334 80.3018 369.482 90.0063 382.898L90.4595 383.539C99.7674 397.096 96.6202 415.706 83.2031 425.411L40.937 456.033C40.7918 459.277 40.1805 462.486 39.0999 465.577L39.1022 465.58C-9.02457 604.021 -8.95585 754.661 39.3309 893.034L39.6046 893.855C40.5154 896.693 41.0331 899.624 41.1657 902.583L83.4565 933.163L84.2461 933.753C92.0327 939.778 96.4366 949.208 96.0423 959.052L95.9863 960.039C94.7879 976.533 80.6613 989.027 64.2132 988.252L63.4282 988.205C46.6734 986.988 34.0473 972.428 35.2642 955.647L38.824 906.401L38.8711 905.598C39.0606 901.588 38.4903 897.594 37.1619 893.795L37.1619 893.792C-11.296 754.93 -11.366 603.757 36.9309 464.826L36.9331 464.824L37.1889 464.061C38.3345 460.491 38.8195 456.761 38.6424 453.018L38.593 452.218L34.9884 402.971C34.2248 392.446 38.9497 382.277 47.4958 376.095L48.1373 375.642ZM1210.08 397.178C1211.69 380.813 1226.05 368.596 1242.57 369.794L1243.36 369.861C1259.46 371.443 1271.55 385.381 1270.78 401.567L1270.74 402.352L1267.18 451.599C1266.87 455.877 1267.42 460.152 1268.84 464.205L1268.84 464.207L1269.96 467.464C1317.29 605.431 1316.99 755.328 1269.07 893.173L1269.07 893.176C1267.65 897.228 1267.1 901.503 1267.41 905.782L1271.01 955.026L1271.01 955.028L1271.07 956.013C1271.46 965.856 1267.08 975.286 1259.29 981.313L1258.5 981.905C1245.11 991.608 1226.45 988.822 1216.46 975.732L1215.99 975.101C1206.29 961.709 1209.07 943.041 1222.16 933.057L1222.8 932.589L1265.06 901.964C1265.21 898.72 1265.82 895.509 1266.9 892.418L1268.02 889.172C1314.65 752.707 1314.58 604.607 1267.79 468.209L1266.67 464.963C1265.59 461.871 1264.98 458.659 1264.83 455.414L1222.54 424.837C1214 418.655 1209.25 408.487 1210.01 397.96L1210.08 397.178ZM41.1657 905.708L41.1141 906.567L37.5544 955.813C36.4293 971.326 48.1035 984.787 63.5964 985.913L63.5941 985.913C79.1071 987.038 92.5702 975.366 93.6961 959.873L93.7477 958.96C94.1121 949.859 90.0399 941.141 82.8397 935.569L82.1107 935.022L41.1747 905.423C41.171 905.517 41.1702 905.613 41.1657 905.708ZM1224.14 934.45C1211.54 943.564 1208.74 961.174 1217.85 973.753L1218.29 974.339C1227.52 986.439 1244.78 989.015 1257.16 980.043L1257.89 979.498C1265.09 973.927 1269.14 965.208 1268.77 956.105L1268.72 955.194L1265.12 905.95L1265.12 905.948C1265.09 905.567 1265.07 905.187 1265.05 904.806L1224.14 934.45ZM402.788 895.172C399.545 879.968 384.584 870.278 369.378 873.522C354.411 876.715 344.789 891.263 347.587 906.221L347.728 906.935L347.932 907.823C350.187 916.951 356.886 924.383 365.78 927.568L409.192 943.095L409.195 943.097L409.921 943.366C411.113 943.826 412.277 944.353 413.407 944.941L402.788 895.172ZM957.465 891.253C952.295 876.85 936.602 869.246 922.157 874.022L921.471 874.26C912.578 877.445 905.9 884.876 903.645 894.026L903.441 894.916L892.874 944.654C894.223 943.95 895.623 943.336 897.059 942.819L940.472 927.246L941.151 926.992C955.337 921.491 962.635 905.655 957.465 891.253ZM656.185 431.597C791.359 433.31 900.41 543.419 900.411 678.999L900.39 682.197C898.678 817.371 788.567 926.422 652.987 926.422L649.79 926.402C515.681 924.703 407.284 816.306 405.586 682.197L405.565 678.998C405.566 542.352 516.34 431.578 652.987 431.577L656.185 431.597ZM652.987 433.874C517.609 433.875 407.863 543.621 407.862 678.998C407.862 814.377 517.609 924.124 652.987 924.125C788.366 924.125 898.114 814.378 898.114 678.999C898.113 543.62 788.366 433.874 652.987 433.874ZM189.067 458.608C202.26 448.732 220.949 451.107 231.216 464.124C241.483 477.14 239.445 495.893 226.789 506.403L226.178 506.899L185.101 539.312C185.032 542.1 184.621 544.88 183.874 547.579L183.874 547.582C159.745 633.696 159.79 724.806 184.011 810.898L184.224 811.687C184.858 814.16 185.203 816.687 185.263 819.228L226.338 851.558L227.102 852.181C234.885 858.724 238.904 868.763 237.748 878.914C235.861 895.622 220.774 907.628 204.066 905.719L204.066 905.717C187.359 903.829 175.353 888.747 177.262 872.039L182.775 823.573L182.854 822.813C183.196 819.01 182.838 815.198 181.799 811.521L181.799 811.519C157.465 725.023 157.418 633.484 181.66 546.965L181.855 546.227C182.724 542.773 183.012 539.198 182.692 535.664L182.614 534.908L177.055 486.467C175.838 475.986 180.16 465.627 188.441 459.088L189.067 458.608ZM1068.23 479.108C1070.11 462.398 1085.2 450.418 1101.91 452.303C1118.62 454.189 1130.62 469.276 1128.71 485.985L1123.2 534.449C1122.76 538.25 1123.03 542.071 1123.98 545.765L1124.18 546.501L1124.18 546.503L1125.3 550.561C1148.51 635.859 1148.18 725.891 1124.32 811.059C1123.23 814.984 1122.9 819.084 1123.36 823.113L1128.92 871.555L1129.02 872.537C1129.84 882.352 1125.83 891.959 1118.3 898.31L1117.53 898.934C1104.52 909.2 1085.77 907.165 1075.26 894.508L1074.76 893.898C1064.5 880.882 1066.53 862.128 1079.19 851.618L1079.8 851.123L1120.87 818.71C1120.94 815.922 1121.35 813.143 1122.1 810.445L1122.1 810.44L1123.22 806.4C1146.23 721.481 1145.81 631.872 1121.96 547.126L1121.75 546.335C1121.12 543.861 1120.77 541.333 1120.71 538.791L1079.64 506.464C1071.36 499.947 1067.03 489.586 1068.23 479.108ZM185.209 822.106C185.173 822.682 185.122 823.26 185.056 823.836L179.545 872.299C177.78 887.747 188.879 901.694 204.326 903.438L204.329 903.438L205.051 903.509C220.208 904.853 233.749 893.86 235.465 878.654L235.467 878.654L235.554 877.745C236.291 868.673 232.586 859.792 225.624 853.94L224.918 853.363L185.209 822.106ZM1081.22 852.926L1081.22 852.928C1069.02 862.55 1066.92 880.247 1076.57 892.474L1076.57 892.476L1077.02 893.039C1086.74 904.741 1104.07 906.623 1116.11 897.13L1116.82 896.554C1124.02 890.484 1127.73 881.202 1126.64 871.819L1126.64 871.817L1121.08 823.376C1121.01 822.783 1120.96 822.189 1120.92 821.595L1081.22 852.926ZM302.028 526.376C314.344 515.834 332.763 516.793 343.915 528.538L344.449 529.115L344.451 529.117L344.969 529.707C355.511 542.023 354.552 560.442 342.807 571.594L342.23 572.128L303.066 607.431L302.914 607.261C302.851 608.937 302.665 610.61 302.346 612.263C293.921 656.495 293.945 701.895 302.416 746.104L302.553 746.869C302.788 748.26 302.932 749.664 302.99 751.071L303.136 750.911L342.318 786.19L342.32 786.19C350.174 793.233 353.801 803.857 351.916 814.24C348.931 830.782 333.082 841.759 316.543 838.777C300 835.793 289.02 819.944 292.003 803.404L292.003 803.401L300.226 758.037C300.913 754.226 300.89 750.327 300.159 746.539L300.159 746.537C291.634 702.042 291.61 656.348 300.09 611.83L300.092 611.828L300.33 610.403C300.809 607.071 300.736 603.668 300.135 600.33L291.867 554.966C289.981 544.583 293.609 533.961 301.438 526.896L302.028 526.376ZM954.083 543.762C957.067 527.219 972.918 516.24 989.458 519.223C1006 522.207 1016.98 538.056 1014 554.596L1014 554.598L1005.77 599.962C1005.17 603.297 1005.11 606.7 1005.6 610.036L1005.84 611.46L1005.84 611.462L1006.62 615.636C1014.36 658.812 1014.12 703.042 1005.91 746.17L1005.91 746.172C1005.18 749.955 1005.18 753.856 1005.87 757.672L1005.86 757.672L1014.13 803.034L1014.3 804.007C1015.74 813.752 1012.38 823.602 1005.29 830.43L1004.56 831.103C992.056 842.369 972.816 841.368 961.55 828.885L961.55 828.883C950.285 816.376 951.287 797.138 963.77 785.872L1002.93 750.568L1003.08 750.734C1003.15 749.06 1003.33 747.39 1003.65 745.739L1004.42 741.589C1012.07 698.67 1011.79 654.724 1003.58 611.895L1003.45 611.13C1003.21 609.739 1003.06 608.336 1003.01 606.929L1002.86 607.088L963.681 571.809L962.956 571.138C955.605 564.103 952.259 553.82 954.085 543.762L954.083 543.762ZM302.99 753.87C302.926 755.401 302.761 756.93 302.488 758.446L302.488 758.448L294.264 803.812C291.506 819.106 301.658 833.757 316.949 836.516C332.243 839.274 346.896 829.123 349.655 813.832L349.655 813.829L349.805 812.93C351.187 803.62 347.817 794.207 340.786 787.902L340.783 787.899L302.99 753.87ZM965.309 787.577C953.768 797.993 952.84 815.779 963.254 827.344L963.257 827.344C973.511 838.706 990.907 839.783 1002.48 829.876L1003.02 829.396C1010.04 823.068 1013.4 813.655 1012.02 804.346L1011.87 803.444L1003.61 758.08L1003.61 758.078C1003.33 756.567 1003.16 755.041 1003.09 753.513L965.309 787.577ZM342.744 530.656C332.327 519.113 314.539 518.186 302.974 528.603C295.736 535.136 292.382 544.956 294.125 554.555L302.396 599.919L302.396 599.921L302.523 600.689C302.721 601.947 302.848 603.215 302.905 604.484L340.691 570.423L341.225 569.929C352.26 559.452 352.998 542.037 342.744 530.653L342.744 530.656ZM989.05 521.484C973.755 518.725 959.102 528.877 956.344 544.168L956.344 544.17C954.655 553.47 957.75 562.976 964.544 569.479L965.215 570.098L965.215 570.1L1003.01 604.125C1003.07 602.595 1003.24 601.068 1003.51 599.554L1003.51 599.551L1011.74 554.188C1014.49 538.893 1004.34 524.242 989.05 521.484ZM229.413 465.548C219.92 453.514 202.643 451.314 190.442 460.448L189.865 460.892C182.206 466.939 178.213 476.517 179.339 486.202L179.339 486.205L184.897 534.646L184.98 535.458C185.009 535.78 185.03 536.102 185.05 536.425L224.756 505.096L225.322 504.638C237.022 494.922 238.906 477.584 229.413 465.548ZM1101.65 454.587C1086.44 452.871 1072.69 463.578 1070.6 478.646L1070.51 479.368C1069.41 489.056 1073.4 498.634 1081.06 504.659L1120.76 535.913C1120.8 535.338 1120.85 534.761 1120.92 534.186L1126.43 485.725L1126.43 485.723L1126.5 485C1127.85 469.843 1116.86 456.303 1101.65 454.587ZM580.632 303.63C588.602 297.299 599.255 295.36 608.967 298.505L609.709 298.756C625.229 304.221 633.638 321.12 628.54 336.861C623.441 352.605 606.708 361.339 590.932 356.668L590.181 356.434L540.017 340.172L540.082 339.968C538.605 340.747 537.071 341.42 535.495 341.978L535.488 341.98C494.301 356.33 456.12 378.114 422.801 406.23L419.594 408.971C418.319 410.072 416.963 411.072 415.545 411.968L415.762 412.015L404.805 463.581C402.678 473.592 395.691 481.835 386.228 485.574L385.304 485.922C369.478 491.603 352.054 483.368 346.373 467.545C340.692 451.718 348.929 434.292 364.753 428.612L408.163 413.04L409.513 412.518C412.632 411.23 415.531 409.444 418.091 407.233L421.321 404.476C453.772 377.092 490.805 355.674 530.731 341.231L534.732 339.811C538.369 338.524 541.759 336.595 544.703 334.093L544.705 334.093L579.87 304.256L580.632 303.63ZM682.822 307.722C693.684 294.879 712.899 293.305 725.739 304.164L760.928 333.954L760.93 333.957L762.054 334.867C764.725 336.93 767.72 338.544 770.918 339.649L770.921 339.649L774.927 341.069C816.204 355.97 854.394 378.296 887.632 406.957L887.634 406.957L888.749 407.877C891.4 409.959 894.376 411.595 897.557 412.74L897.56 412.74L940.97 428.269L940.972 428.269L941.894 428.616C951.356 432.355 958.368 440.595 960.496 450.585L960.65 451.357C963.675 467.533 953.269 483.268 937.08 486.723C920.892 490.177 904.956 480.078 901.115 464.075L900.942 463.308L889.94 411.742L890.184 411.688C888.765 410.796 887.409 409.799 886.133 408.698L882.921 405.961C849.58 377.89 811.379 356.147 770.169 341.819L770.169 341.821C768.574 341.27 767.026 340.596 765.537 339.815L765.616 340.058L715.477 356.367L715.474 356.367C705.43 359.612 694.425 357.465 686.379 350.638L685.785 350.122C673.49 339.177 672.133 320.361 682.822 307.722ZM413.127 413.363C411.777 414.068 410.379 414.683 408.941 415.2L408.939 415.2L365.529 430.774C350.897 436.027 343.284 452.138 348.535 466.769C353.788 481.4 369.898 489.013 384.528 483.762L384.53 483.76L385.382 483.439C394.13 479.983 400.593 472.362 402.56 463.103L413.127 413.363ZM903.187 462.828L903.349 463.536C906.9 478.332 921.632 487.671 936.6 484.478C951.567 481.284 961.189 466.736 958.392 451.778L958.25 451.065C956.22 441.533 949.377 433.72 940.196 430.431L940.196 430.429L896.786 414.904L896.783 414.902C895.336 414.381 893.926 413.766 892.567 413.058L903.187 462.828ZM88.1469 384.244C79.0334 371.644 61.4228 368.841 48.8438 377.954L48.8416 377.956C40.9424 383.672 36.5724 393.072 37.2786 402.805L40.8854 452.049L40.8854 452.052L40.937 452.911C40.9414 453.004 40.9423 453.098 40.946 453.191L81.8573 423.549L82.4405 423.116C94.5424 413.887 97.1184 396.629 88.1469 384.246L88.1469 384.244ZM1242.41 372.084C1227.14 370.976 1213.85 382.272 1212.36 397.404L1212.3 398.126C1211.6 407.858 1215.99 417.259 1223.89 422.975L1264.82 452.575C1264.84 452.194 1264.86 451.813 1264.89 451.433L1268.45 402.186L1268.49 401.462C1269.2 386.498 1258.02 373.609 1243.13 372.147L1242.41 372.084ZM582.546 170.004C590.911 164.215 601.647 162.966 611.151 166.758L611.878 167.059C627.019 173.541 634.302 190.921 628.17 206.31C622.038 221.699 604.78 229.319 589.351 223.611L588.618 223.328L540.015 203.951C537.556 205.292 534.929 206.329 532.202 207.019L532.204 207.021C446.917 228.834 369.155 273.362 307.162 335.818L304.221 338.806C302.26 340.814 300.049 342.571 297.656 344.035L290.182 395.82C288.725 405.924 282.295 414.618 273.106 418.971L272.206 419.379C256.787 426.086 238.839 419.021 232.132 403.601C225.424 388.182 232.49 370.232 247.909 363.525L292.629 344.071L293.322 343.759C296.771 342.158 299.917 339.922 302.577 337.2L305.531 334.199C367.816 271.448 445.945 226.712 531.635 204.796L531.637 204.794L532.375 204.599C536.044 203.574 539.506 201.874 542.558 199.61L581.745 170.578L582.546 170.004ZM681.144 176.904C691.145 163.395 710.215 160.53 723.726 170.531L762.933 199.516L763.552 199.962C766.678 202.153 770.163 203.768 773.857 204.702L773.859 204.702L777.935 205.759C863.406 228.307 941.205 273.601 1003.03 336.855L1003.57 337.393C1006.29 340.045 1009.49 342.186 1012.98 343.703L1057.72 363.11L1058.62 363.518C1067.81 367.871 1074.24 376.566 1075.72 386.669L1075.72 386.669L1075.82 387.449C1077.77 403.786 1066.34 418.812 1049.96 421.185C1033.33 423.595 1017.86 412.068 1015.45 395.43L1007.93 343.662C1005.78 342.35 1003.77 340.8 1001.97 339.037L1001.39 338.461C938.875 274.505 859.956 228.997 773.292 206.929L773.292 206.927C770.565 206.238 767.948 205.203 765.492 203.863L716.923 223.281C707.442 227.073 696.685 225.849 688.317 220.06L687.517 219.486C674.008 209.485 671.142 190.415 681.144 176.904ZM294.289 345.843L293.544 346.177L248.824 365.631C234.568 371.832 228.037 388.428 234.238 402.684C240.439 416.94 257.035 423.474 271.291 417.273L272.121 416.896C280.616 412.872 286.561 404.833 287.908 395.491L295.135 345.432C294.855 345.572 294.573 345.711 294.289 345.843ZM1017.72 395.098L1017.73 395.1L1017.84 395.816C1020.4 410.809 1034.49 421.104 1049.63 418.911C1065.01 416.682 1075.68 402.383 1073.45 387.001L1073.3 386.101C1071.69 377.142 1065.86 369.489 1057.64 365.595L1056.81 365.218L1012.07 345.809L1012.06 345.809C1011.52 345.573 1010.98 345.32 1010.45 345.055L1017.72 395.098ZM608.258 300.69C599.279 297.782 589.429 299.576 582.061 305.429L581.357 306.008L546.19 335.845C545.022 336.837 543.788 337.742 542.502 338.562L590.89 354.25L591.583 354.465C606.17 358.784 621.641 350.709 626.355 336.155C631.069 321.599 623.293 305.975 608.947 300.923L608.258 300.69ZM724.256 305.918C712.382 295.876 694.616 297.334 684.576 309.204C674.69 320.894 675.949 338.291 687.315 348.409L687.862 348.884L687.864 348.886L688.569 349.465C695.933 355.315 705.762 357.09 714.765 354.182L763.157 338.44C761.86 337.618 760.618 336.705 759.443 335.706L759.443 335.708L724.256 305.918ZM583.869 5.22836C592.455 -0.206993 603.23 -0.99318 612.569 3.16698L612.571 3.16698L613.285 3.49671C628.155 10.5809 634.685 28.2592 627.943 43.3874C621.091 58.7607 603.07 65.6081 587.725 58.7592L587.723 58.7592L540.071 37.4567C537.187 38.9517 534.101 40.0224 530.897 40.6464L530.895 40.6486C388.075 67.9707 258.569 142.398 163.054 251.975L160.804 254.57C158.671 257.041 156.187 259.183 153.443 260.942L148.122 312.854C147.048 323.355 140.629 332.546 131.128 337.153L131.128 337.151C115.994 344.502 97.8058 338.176 90.455 323.046C83.1034 307.913 89.4289 289.699 104.562 282.37L148.983 260.826C152.84 258.941 156.275 256.303 159.066 253.069L161.322 250.467C257.174 140.504 387.134 65.8116 530.457 38.3921L531.247 38.2283C535.17 37.363 538.883 35.78 542.204 33.5179L542.206 33.5157L583.044 5.76894L583.869 5.22836ZM680.014 13.8148C689.465 -0.0997284 708.393 -3.72833 722.309 5.69943L763.169 33.3991L763.839 33.8387C767.216 35.9976 770.969 37.5055 774.913 38.2531L774.916 38.2531L778.298 38.9058C921.435 66.9085 1051.11 142.113 1146.52 252.54L1146.52 252.542L1147.05 253.141C1149.56 255.905 1152.56 258.203 1155.88 259.915L1156.6 260.274L1201.04 281.774L1201.05 281.774L1201.93 282.218C1210.92 286.953 1217 295.872 1218.06 306.046L1218.06 306.048L1218.14 306.829C1219.41 322.962 1207.77 337.288 1191.71 339.374L1190.93 339.466C1174.48 341.18 1159.72 329.434 1157.6 313.107L1157.51 312.327L1152.12 260.393C1149.62 258.798 1147.34 256.881 1145.35 254.687L1144.78 254.043C1048.96 143.138 918.452 67.8861 774.485 40.5096L774.485 40.5073C771.276 39.899 768.188 38.8224 765.306 37.3312L717.655 58.6874L717.657 58.6896C708.037 63.01 696.864 62.0312 688.129 56.1124L688.127 56.1101C674.215 46.6591 670.561 27.7319 680.014 13.8148ZM149.988 262.892L149.986 262.894L105.564 284.439L105.562 284.439C91.5719 291.214 85.7247 308.051 92.5208 322.041C99.3188 336.034 116.134 341.88 130.124 335.085L130.126 335.085L130.94 334.674C139.274 330.295 144.876 322.026 145.839 312.618L150.986 262.38C150.656 262.555 150.324 262.727 149.988 262.892ZM1159.79 312.089L1159.88 312.811C1161.84 327.908 1175.48 338.765 1190.69 337.18L1191.41 337.097C1206.27 335.168 1217.02 321.921 1215.85 307.008L1215.78 306.286C1214.76 296.576 1208.81 288.1 1200.04 283.84L1200.04 283.838L1155.6 262.342L1155.6 262.34C1155.25 262.173 1154.91 262 1154.57 261.822L1159.79 312.089ZM610.299 168.891C601.513 165.386 591.588 166.54 583.853 171.893L583.111 172.424L543.927 201.456C543.456 201.806 542.973 202.139 542.484 202.463L589.468 221.195L590.147 221.456C604.41 226.732 620.366 219.69 626.036 205.46C631.796 191.005 624.757 174.652 610.301 168.891L610.299 168.891ZM722.36 172.377C709.871 163.132 692.237 165.778 682.99 178.27C673.745 190.759 676.392 208.393 688.883 217.64L689.625 218.172C697.36 223.522 707.306 224.654 716.071 221.148L763.023 202.376C762.532 202.052 762.046 201.716 761.571 201.367L761.569 201.364L722.36 172.377ZM611.636 5.26425C602.996 1.41526 593.032 2.14631 585.096 7.17085L584.336 7.66881L543.496 35.4133L543.498 35.4155C543.182 35.631 542.859 35.8374 542.536 36.0414L588.66 56.6619L589.326 56.949C603.37 62.7967 619.612 56.4396 625.846 42.4521C632.082 28.4584 626.04 12.1168 612.295 5.56931L611.636 5.26425ZM721.021 7.60155C708.156 -1.11482 690.653 2.23816 681.914 15.1046C673.176 27.9685 676.551 45.4694 689.419 54.2102L689.417 54.2102C697.494 59.6833 707.822 60.5878 716.715 56.5946L716.717 56.5946L762.837 35.9203C762.517 35.7193 762.197 35.5151 761.883 35.3034L761.881 35.3012L721.021 7.60155Z" fill="white"/>
</svg>
